<svg viewBox="0 0 312 276" xmlns="http://www.w3.org/2000/svg">
<path fill="#8580D4" d="M227.893250,146.018021 C227.835800,144.628769 227.778351,143.239502 227.705582,141.160736 C227.436417,139.653778 227.182571,138.836334 226.928711,138.018890 C226.896561,137.255478 226.864426,136.492081 226.707657,135.127151 C226.383774,134.018417 226.184540,133.511185 225.985291,133.003952 C221.399124,112.604156 208.938004,98.343140 190.631714,89.245316 C183.425049,85.663757 175.359253,83.806381 167.673096,81.197983 C166.144562,80.679253 164.563248,80.316055 163.004227,79.880569 C169.554626,57.544338 200.269394,37.821449 225.466187,39.986649 C224.496155,40.891445 223.368286,41.348347 220.928360,42.336781 C223.550690,43.995831 225.095871,45.373348 226.902740,46.023285 C229.649765,47.011402 232.656158,47.273975 235.411316,48.245022 C239.459305,49.671722 241.845261,48.788197 242.260513,44.249077 C245.926956,46.831173 250.186630,48.878391 253.114868,52.126087 C257.083984,56.528179 261.117340,60.129948 267.090851,61.353203 C269.126434,61.770042 270.970001,63.124451 273.381012,64.397758 C274.585266,65.132385 275.309784,65.519730 276.034332,65.907066 C277.274780,67.353600 278.515198,68.800140 280.044037,70.582977 C277.835327,71.045082 276.246124,71.377579 273.938049,71.798645 C270.824524,72.633423 268.429840,73.379639 266.035126,74.125862 C263.798004,75.213715 261.560913,76.301559 258.819336,77.736237 C251.548660,84.553818 249.802643,91.764786 253.008453,99.998344 C253.472748,101.521332 253.937042,103.044312 254.642426,105.192490 C256.252228,109.546120 257.620941,113.274551 258.989624,117.002991 C259.620361,119.770927 260.251129,122.538872 260.996033,126.004776 C261.473541,128.117752 261.836914,129.532745 262.200317,130.947754 C262.332123,132.351959 262.463959,133.756165 262.629517,135.803543 C262.792450,136.959656 262.921661,137.472595 263.050873,137.985535 C263.001404,143.354782 262.951904,148.724014 262.832031,154.779907 C262.806427,155.993042 262.851257,156.519547 262.896118,157.046036 C262.578827,159.075027 262.261536,161.104004 261.810669,163.780334 C261.683502,164.969498 261.689911,165.511276 261.696350,166.053070 C261.142517,168.110840 260.588684,170.168625 259.844482,172.810303 C259.587708,173.943466 259.521332,174.492691 259.454926,175.041931 C259.287659,175.465012 259.120361,175.888092 258.738251,176.826263 C258.443298,177.904297 258.363129,178.467255 258.282959,179.030212 C257.849548,180.115997 257.416138,181.201782 256.703461,182.853851 C255.201630,186.597137 253.979080,189.774124 252.756531,192.951111 C242.418228,212.317947 228.235260,227.997223 208.552322,238.150574 C185.800705,249.886887 162.142731,252.832123 137.251038,244.056931 C136.986221,243.350021 136.998367,243.158432 137.010513,242.966858 C143.690979,241.920761 150.371460,240.874680 157.505981,240.157486 C160.959045,246.667892 164.924652,248.228439 172.828415,246.146164 C171.880569,242.360245 170.930634,238.565994 169.980698,234.771744 C169.980698,234.771744 170.087372,234.706085 170.518005,234.714966 C171.308456,234.417984 171.668289,234.112091 172.028107,233.806213 C172.028107,233.806213 172.120056,233.737732 172.525421,233.738678 C173.268814,233.449295 173.606827,233.158936 173.944839,232.868576 C173.944839,232.868576 173.953613,232.959305 174.235718,232.944214 C174.987106,232.566208 175.456421,232.203262 175.925720,231.840332 C175.925720,231.840332 175.936691,231.936722 176.219757,231.926224 C176.979675,231.550186 177.456558,231.184647 177.933441,230.819107 C189.066483,224.019089 199.371048,216.209717 207.646927,206.006561 C216.367096,195.255646 222.593826,183.222931 226.048737,169.138214 C226.236237,168.004333 226.270798,167.464828 226.305374,166.925323 C226.507202,166.195038 226.709030,165.464737 227.076996,164.062119 C227.267624,162.235672 227.292099,161.081543 227.316574,159.927429 C227.544708,158.227844 227.772842,156.528259 228.117645,154.079315 C228.120621,150.892639 228.006943,148.455338 227.893250,146.018021 M230.347260,66.259010 C233.170441,68.266472 236.245682,68.533920 238.114426,65.520554 C239.039230,64.029289 238.920425,60.272709 237.875000,59.541809 C236.132919,58.323841 232.873978,57.807789 230.962280,58.634560 C227.880341,59.967438 227.921478,62.993420 230.347260,66.259010 z"/>
<path fill="#8580D4" d="M242.041168,44.010345 C241.845261,48.788197 239.459305,49.671722 235.411316,48.245022 C232.656158,47.273975 229.649765,47.011402 226.902740,46.023285 C225.095871,45.373348 223.550690,43.995831 220.928360,42.336781 C223.368286,41.348347 224.496155,40.891445 225.830353,40.146282 C231.298416,41.162556 236.560120,42.467087 242.041168,44.010345 z"/>
<path fill="#8580D4" d="M169.593658,234.793884 C170.930634,238.565994 171.880569,242.360245 172.828415,246.146164 C164.924652,248.228439 160.959045,246.667892 157.925079,240.104050 C161.662277,238.086487 165.434448,236.451248 169.593658,234.793884 z M177.623032,230.834930 C177.456558,231.184647 176.979675,231.550186 176.178925,231.900024 C176.340897,231.539825 176.826767,231.195297 177.623032,230.834930 z M175.618027,231.853256 C175.456421,232.203262 174.987106,232.566208 174.198074,232.918518 C174.355667,232.560654 174.832993,232.213425 175.618027,231.853256 z M173.607819,232.893738 C173.606827,233.158936 173.268814,233.449295 172.582275,233.731293 C172.579437,233.454926 172.925110,233.186905 173.607819,232.893738 z M171.671722,233.834656 C171.668289,234.112091 171.308456,234.417984 170.580536,234.718384 C170.580078,234.429642 170.947708,234.146378 171.671722,233.834656 z"/>
<path fill="#8580D4" d="M136.804520,242.866974 C136.998367,243.158432 136.986221,243.350021 136.961639,243.829285 C136.430573,243.875076 135.911926,243.633194 135.393295,243.391296 C135.795044,243.183243 136.196777,242.975174 136.804520,242.866974 z"/>
<path fill="#B8B5F0" d="M209.005371,134.621918 C202.596039,134.630615 196.182632,134.128296 189.763412,134.038239 C188.860794,134.025574 187.929886,136.029800 187.021332,137.495804 C181.883759,136.443604 176.736893,134.996048 171.278824,133.336136 C172.348831,127.457451 176.761185,129.132187 180.431274,129.344498 C183.317947,129.511490 186.225327,130.569138 189.040268,130.313705 C191.113937,130.125565 193.018738,128.379379 195.060837,127.466171 C197.833191,126.226402 200.664825,125.119110 203.893921,123.923340 C205.877686,127.341850 207.438553,130.792023 209.005371,134.621918 z"/>
<path fill="#B8B5F0" d="M189.000610,173.998367 C189.163101,173.562759 189.325577,173.127136 189.488068,172.691513 C193.024124,175.391647 195.370010,171.624847 198.669128,171.029633 C202.585129,178.756729 201.387695,186.002441 196.787216,193.505585 C193.560883,189.299713 190.692703,185.560760 188.072830,181.414581 C188.547623,178.671036 188.774109,176.334702 189.000610,173.998367 z"/>
<path fill="#B8B5F0" d="M110.541718,192.219696 C109.424423,200.553375 113.707062,205.095535 122.071106,203.840714 C123.150337,203.678833 123.937569,202.031982 125.062843,201.594070 C126.356682,201.090530 127.876114,201.166687 129.297577,200.991043 C128.754654,202.184052 128.428452,204.222778 127.632111,204.426849 C123.727951,205.427353 122.281403,207.741089 121.322876,211.598663 C120.731712,213.977844 117.485695,215.602203 115.778488,217.831146 C114.550995,219.433792 113.896591,221.475372 112.976456,223.711517 C105.384422,220.421036 97.802475,216.740204 90.065681,212.332123 C90.986504,205.875076 92.062180,200.145279 92.946953,195.432388 C95.604645,193.989410 97.300316,193.068756 98.995979,192.148102 C102.694168,192.138153 106.392357,192.128204 110.541718,192.219696 z M117.797424,192.472855 C116.597588,192.789429 114.974182,192.989990 113.207642,192.816025 C114.500946,192.413284 115.937401,192.385056 117.797424,192.472855 z"/>
<path fill="#B8B5F0" d="M118.220985,192.588867 C126.667931,191.023605 135.091171,189.313293 143.567581,187.928391 C155.161911,186.034103 166.539703,185.807556 177.372604,191.790482 C182.033615,194.364716 184.662201,198.030182 185.625748,202.904480 C185.893326,204.258102 184.774338,206.452438 183.600662,207.440109 C163.098190,224.692825 139.978668,231.510757 113.258347,223.954361 C113.896591,221.475372 114.550995,219.433792 115.778488,217.831146 C117.485695,215.602203 120.731712,213.977844 121.322876,211.598663 C122.281403,207.741089 123.727951,205.427353 127.632111,204.426849 C128.428452,204.222778 128.754654,202.184052 129.297577,200.991043 C127.876114,201.166687 126.356682,201.090530 125.062843,201.594070 C123.937569,202.031982 123.150337,203.678833 122.071106,203.840714 C113.707062,205.095535 109.424423,200.553375 110.992897,192.321136 C111.525192,192.270126 112.057495,192.219116 112.970291,192.679321 C114.974182,192.989990 116.597588,192.789429 118.220985,192.588867 z"/>
<path fill="#B8B5F0" d="M94.001526,138.003510 C104.712753,140.056702 115.356979,142.628998 126.153374,144.022278 C137.775070,145.522064 149.543091,145.871307 161.239563,146.817795 C165.346466,147.150116 169.430496,147.764709 173.688629,148.829910 C172.199631,152.158066 173.564301,154.070282 176.031601,154.733704 C178.620178,155.429703 181.404160,155.180756 182.100723,151.590927 C185.750809,154.362717 189.400879,157.134491 192.981781,160.575806 C190.858368,163.923599 188.527847,166.776047 191.714920,169.929657 C194.803680,172.985977 195.558044,168.437119 197.526276,167.716431 C197.999619,168.606964 198.472961,169.497498 198.626541,170.728271 C195.370010,171.624847 193.024124,175.391647 189.488068,172.691513 C189.325577,173.127136 189.163101,173.562759 188.677109,174.139816 C186.566406,175.532135 184.779221,176.783005 182.992035,178.033875 C168.019943,170.570435 152.564331,173.508652 136.964096,175.354675 C120.340065,177.321838 103.708855,176.593857 87.289703,170.947205 C87.694473,168.630814 88.421249,166.975327 88.932777,165.255814 C90.352730,160.482574 91.785149,155.708420 93.002693,150.881668 C93.551132,148.707504 93.681435,146.413559 93.852089,144.162628 C94.007141,142.117569 93.959702,140.057159 94.001526,138.003510 z"/>
<path fill="#B8B5F0" d="M119.044632,86.820030 C131.760208,90.094284 144.515060,93.225037 157.178284,96.690544 C166.440750,99.225380 175.821121,101.603073 184.710007,105.150620 C193.245117,108.556961 199.466095,115.235962 203.801453,123.581322 C200.664825,125.119110 197.833191,126.226402 195.060837,127.466171 C193.018738,128.379379 191.113937,130.125565 189.040268,130.313705 C186.225327,130.569138 183.317947,129.511490 180.431274,129.344498 C176.761185,129.132187 172.348831,127.457451 170.967606,133.123779 C169.209915,132.921204 167.452225,132.718613 165.299774,131.991150 C163.213181,129.205109 161.875412,129.191147 160.995300,132.082230 C159.864792,131.935577 158.734268,131.788925 157.293396,131.113922 C156.785629,126.906555 154.476303,126.290390 151.017105,126.420937 C151.453857,128.361618 151.800522,129.901917 152.147171,131.442200 C143.640152,130.783600 135.133118,130.124985 126.530136,128.966644 C130.394424,126.002815 134.354660,123.538696 138.157516,121.172508 C133.566498,112.063286 122.982582,114.819000 116.411720,108.601135 C122.134369,107.369690 124.359718,104.528725 121.439522,100.208084 C118.546005,95.926910 119.007538,91.422714 119.044632,86.820030 M152.415543,102.157097 C151.888321,100.513046 151.361099,98.869003 150.833893,97.224953 C150.386917,97.043823 149.939957,96.862686 149.492981,96.681557 C148.729370,98.826508 147.205231,101.079895 147.489777,103.075386 C147.658188,104.256622 150.622818,105.191399 152.462173,105.888527 C153.007614,106.095253 154.001968,105.117523 154.790604,104.682541 C154.210358,103.964867 153.630112,103.247192 152.415543,102.157097 M160.272263,102.093437 C160.768997,102.038841 161.265732,101.984253 161.762482,101.929657 C161.648148,101.485466 161.533829,101.041275 161.419495,100.597084 C160.995224,100.897644 160.570938,101.198204 160.272263,102.093437 z M209.011307,135.001663 C212.564453,143.332855 212.440475,151.809479 210.048019,161.971039 C204.395035,151.106644 197.221771,143.431564 187.235703,137.758087 C187.929886,136.029800 188.860794,134.025574 189.763412,134.038239 C196.182632,134.128296 202.596039,134.630615 209.011307,135.001663 z"/>
<path fill="#B8B5F0" d="M118.782379,86.585320 C119.007538,91.422714 118.546005,95.926910 121.439522,100.208084 C124.359718,104.528725 122.134369,107.369690 116.411720,108.601135 C122.982582,114.819000 133.566498,112.063286 138.157516,121.172508 C134.354660,123.538696 130.394424,126.002815 126.216858,128.733765 C112.826447,125.524826 99.653374,122.049057 86.235146,117.943703 C86.189133,116.362740 86.180603,115.299057 86.623718,114.479607 C88.452927,111.096855 90.561470,107.860489 92.301254,104.435150 C94.871101,99.375610 96.635216,93.789040 99.875732,89.232941 C101.762169,86.580658 104.757431,84.905792 103.998039,81.032768 C108.838737,82.805382 113.679428,84.577995 118.782379,86.585320 z M152.547943,131.451935 C151.800522,129.901917 151.453857,128.361618 151.017105,126.420937 C154.476303,126.290390 156.785629,126.906555 156.966797,131.008331 C155.616623,131.441284 154.282669,131.451462 152.547943,131.451935 z M161.392014,132.154434 C161.875412,129.191147 163.213181,129.205109 164.957092,131.834991 C163.935699,132.211349 162.862213,132.218994 161.392014,132.154434 z M152.732712,102.343307 C153.630112,103.247192 154.210358,103.964867 154.790604,104.682541 C154.001968,105.117523 153.007614,106.095253 152.462173,105.888527 C150.622818,105.191399 147.658188,104.256622 147.489777,103.075386 C147.205231,101.079895 148.729370,98.826508 149.492981,96.681557 C149.939957,96.862686 150.386917,97.043823 150.833893,97.224953 C151.361099,98.869003 151.888321,100.513046 152.732712,102.343307 z M160.209473,101.796097 C160.570938,101.198204 160.995224,100.897644 161.419495,100.597084 C161.533829,101.041275 161.648148,101.485466 161.762482,101.929657 C161.265732,101.984253 160.768997,102.038841 160.209473,101.796097 z"/>
<path fill="#B8B5F0" d="M93.635345,137.936096 C93.959702,140.057159 94.007141,142.117569 93.852089,144.162628 C93.681435,146.413559 93.551132,148.707504 93.002693,150.881668 C91.785149,155.708420 90.352730,160.482574 88.932777,165.255814 C88.421249,166.975327 87.694473,168.630814 87.015152,170.705750 C77.393036,168.610031 68.741837,164.342316 61.109940,157.127029 C61.635624,154.466522 62.072968,152.376862 63.020241,150.551865 C66.300362,144.232498 69.757858,138.005173 73.147850,131.742828 C79.854958,133.784790 86.562065,135.826736 93.635345,137.936096 z"/>
<path fill="#B8B5F0" d="M103.641342,80.913475 C104.757431,84.905792 101.762169,86.580658 99.875732,89.232941 C96.635216,93.789040 94.871101,99.375610 92.301254,104.435150 C90.561470,107.860489 88.452927,111.096855 86.623718,114.479607 C86.180603,115.299057 86.189133,116.362740 85.979729,117.700974 C77.780617,113.654259 69.591766,109.220673 61.204014,104.140259 C62.530560,100.263992 63.940422,96.973473 65.607521,93.818893 C68.368774,88.593880 71.327637,83.473701 74.140923,78.275627 C75.859283,75.100632 77.461143,71.862587 79.115334,68.652863 C85.640663,72.130646 92.148445,75.642105 98.705063,79.059875 C100.142380,79.809120 101.753548,80.224854 103.641342,80.913475 z"/>
<path fill="#B8B5F0" d="M197.439301,167.368164 C195.558044,168.437119 194.803680,172.985977 191.714920,169.929657 C188.527847,166.776047 190.858368,163.923599 193.079193,160.888718 C194.614624,162.694702 195.983459,164.857300 197.439301,167.368164 z M188.677094,174.139816 C188.774109,176.334702 188.547623,178.671036 187.904770,181.108749 C186.106506,180.325668 184.724579,179.441208 183.167343,178.295319 C184.779221,176.783005 186.566406,175.532135 188.677094,174.139816 z"/>
<path fill="#B8B5F0" d="M181.869385,151.347351 C181.404160,155.180756 178.620178,155.429703 176.031601,154.733704 C173.564301,154.070282 172.199631,152.158066 174.008667,149.055237 C176.656067,149.501968 179.147049,150.302872 181.869385,151.347351 z"/>
<path fill="#B8B5F0" d="M98.597374,192.028137 C97.300316,193.068756 95.604645,193.989410 92.946953,195.432388 C92.062180,200.145279 90.986504,205.875076 89.860138,212.082611 C79.912605,205.998749 72.786705,197.081863 66.889908,186.241104 C77.837799,188.222733 88.018280,190.065460 98.597374,192.028137 z"/>
<path fill="#B8B5F0" d="M78.918152,68.396385 C77.461143,71.862587 75.859283,75.100632 74.140923,78.275627 C71.327637,83.473701 68.368774,88.593880 65.607521,93.818893 C63.940422,96.973473 62.530560,100.263992 60.998505,103.892807 C55.345898,98.843071 49.699902,93.393944 44.001019,87.226730 C42.442677,82.154694 44.860672,78.859573 47.008804,75.556717 C51.335632,68.904015 55.760582,62.315136 60.145054,55.699928 C66.337021,59.846588 72.528992,63.993248 78.918152,68.396385 z"/>
<path fill="#B8B5F0" d="M73.054886,131.412949 C69.757858,138.005173 66.300362,144.232498 63.020241,150.551865 C62.072968,152.376862 61.635624,154.466522 60.937119,156.847107 C56.633968,152.787552 52.358192,148.315720 48.028641,143.097717 C48.983337,136.900803 49.991817,131.450104 51.370533,125.994492 C52.838989,124.944107 53.937214,123.898621 55.035439,122.853134 C61.010933,125.596443 66.986427,128.339752 73.054886,131.412949 z"/>
<path fill="#B8B5F0" d="M53.455700,50.529434 C44.979034,53.588348 41.011486,60.456444 38.095142,68.278725 C37.625633,69.538048 36.988750,70.734970 36.028297,72.044334 C34.694180,69.714912 33.761002,67.301888 33.090061,64.281387 C34.226269,59.503437 36.264137,55.166695 35.697762,51.201981 C34.875767,45.447872 37.185307,41.360161 39.910065,37.050030 C44.375523,41.434208 48.840984,45.818386 53.455700,50.529434 z"/>
<path fill="#B8B5F0" d="M51.000305,125.999390 C49.991817,131.450104 48.983337,136.900803 47.953949,142.769836 C40.251022,134.065186 36.991913,123.231453 34.957989,111.923820 C35.332596,111.628708 35.707207,111.333603 36.081818,111.038498 C39.920509,113.498436 43.759205,115.958374 47.804825,119.079323 C49.007938,121.826683 50.004124,123.913033 51.000305,125.999390 z"/>
<path fill="#B8B5F0" d="M59.970268,55.432602 C55.760582,62.315136 51.335632,68.904015 47.008804,75.556717 C44.860672,78.859573 42.442677,82.154694 43.920158,86.905991 C41.171829,82.494087 38.451477,77.684822 36.080177,72.418152 C36.988750,70.734970 37.625633,69.538048 38.095142,68.278725 C41.011486,60.456444 44.979034,53.588348 53.604958,50.856308 C55.668465,52.292629 57.731976,53.728951 59.970268,55.432602 z"/>
<path fill="#B8B5F0" d="M39.751671,36.753643 C37.185307,41.360161 34.875767,45.447872 35.697762,51.201981 C36.264137,55.166695 34.226269,59.503437 33.024841,63.915630 C29.330435,52.620853 29.156691,41.017727 31.554153,28.029930 C34.799847,31.432356 37.196560,33.944805 39.751671,36.753643 z"/>
<path fill="#B8B5F0" d="M51.370537,125.994492 C50.004124,123.913033 49.007938,121.826683 48.020176,119.333649 C50.226566,120.065750 52.424538,121.204529 54.828972,122.598221 C53.937214,123.898621 52.838989,124.944107 51.370537,125.994492 z"/>
<path fill="#B8B5F0" d="M227.543762,146.080200 C228.006943,148.455338 228.120621,150.892639 228.055191,153.650620 C227.648804,151.361649 227.421539,148.752029 227.543762,146.080200 z M227.036469,160.045212 C227.292099,161.081543 227.267624,162.235672 227.041275,163.676422 C226.811737,162.696381 226.784058,161.429688 227.036469,160.045212 z M226.688751,138.184052 C227.182571,138.836334 227.436417,139.653778 227.550659,140.770035 C227.090286,140.162308 226.769531,139.255753 226.688751,138.184052 z M226.067551,166.990265 C226.270798,167.464828 226.236237,168.004333 226.018738,168.753357 C225.833786,168.326996 225.831757,167.691116 226.067551,166.990265 z M225.764801,133.132599 C226.184540,133.511185 226.383774,134.018417 226.505707,134.797882 C226.133698,134.467163 225.839005,133.864197 225.764801,133.132599 z"/>
<path fill="#B8B5F0" d="M230.089966,66.007950 C227.921478,62.993420 227.880341,59.967438 230.962280,58.634560 C232.873978,57.807789 236.132919,58.323841 237.875000,59.541809 C238.920425,60.272709 239.039230,64.029289 238.114426,65.520554 C236.245682,68.533920 233.170441,68.266472 230.089966,66.007950 z"/>
<path fill="#B8B5F0" d="M253.398956,99.982964 C249.802643,91.764786 251.548660,84.553818 258.651520,78.026985 C258.383118,79.929848 257.577209,81.852524 257.215576,83.855415 C256.495880,87.841454 256.109497,91.887505 255.396423,95.874969 C255.143433,97.289726 254.341049,98.606232 253.398956,99.982964 z M259.289856,116.866272 C257.620941,113.274551 256.252228,109.546120 254.888306,105.431030 C255.387314,105.055855 255.945312,104.926353 256.359924,105.113876 C256.898193,105.357330 257.650909,105.787483 257.743378,106.250648 C258.437592,109.727921 258.991974,113.233101 259.289856,116.866272 z M253.116791,192.956757 C253.979080,189.774124 255.201630,186.597137 256.701538,183.207108 C259.144592,184.880844 259.209137,186.571701 256.895111,188.551788 C255.511093,189.736084 254.600479,191.473572 253.116791,192.956757 z M266.309875,74.386612 C268.429840,73.379639 270.824524,72.633423 273.609741,71.944580 C272.879150,76.670311 269.387726,74.694077 266.309875,74.386612 z M262.511597,130.806396 C261.836914,129.532745 261.473541,128.117752 261.195251,126.335907 C262.439575,126.368401 263.598816,126.767723 264.758087,127.167046 C264.113037,128.333038 263.467957,129.499054 262.511597,130.806396 z M258.598114,179.031311 C258.363129,178.467255 258.443298,177.904297 258.763794,177.171051 C259.521759,177.269348 260.039368,177.537918 260.556976,177.806503 C260.009064,178.215134 259.461182,178.623764 258.598114,179.031311 z M259.714783,174.999725 C259.521332,174.492691 259.587708,173.943466 259.874329,173.209778 C260.054565,173.669388 260.014618,174.313461 259.714783,174.999725 z M261.935608,165.980835 C261.689911,165.511276 261.683502,164.969498 261.864502,164.220673 C262.092926,164.645294 262.133911,165.276947 261.935608,165.980835 z M263.111237,156.948410 C262.851257,156.519547 262.806427,155.993042 262.916656,155.242432 C263.156586,155.629120 263.241486,156.239960 263.111237,156.948410 z M263.258301,137.874268 C262.921661,137.472595 262.792450,136.959656 262.783813,136.199036 C263.091461,136.555237 263.278564,137.159119 263.258301,137.874268 z M275.974854,65.559204 C275.309784,65.519730 274.585266,65.132385 273.720276,64.461601 C274.358368,64.522552 275.136841,64.866951 275.974854,65.559204 z"/>
</svg>